<svg id="Capa_1" enable-background="new 0 0 512 512" height="512" viewBox="0 0 512 512" width="512" xmlns="http://www.w3.org/2000/svg"><g><g><path d="m325.955 10v166h40c0 11.05 8.95 20 20 20s20-8.95 20-20h40v-166z" fill="#ff7d97"/><path d="m425.955 296c0 22.09-17.91 40-40 40s-40-17.91-40-40 40-60 40-60 40 37.91 40 60z" fill="#99ebfa"/><g fill="#fce8d0"><path d="m389.725 393.7c-15.63-15.61-40.94-15.61-56.56.01l-48.29 48.29h-38.92c-22.09 0-40-17.91-40-40h40c22.09 0 40-17.91 40-40h-80c-26.13 0-48.35 16.69-56.59 40h-83.41v100h292.03l88.06-108.05c-15.55-15.54-40.68-15.62-56.32-.25z"/><path d="m325.955 150.65v25.35c-21.63 32.44-44.65 60-93.52 60h-46.48l-120 120v-140l140-140h120v40h20c0 14.8-8.04 27.73-20 34.65z"/></g></g><g><path d="m392.834 228.742c-3.857-3.655-9.9-3.655-13.758 0-14.871 14.122-43.121 45.214-43.121 67.258 0 27.57 22.43 50 50 50s50-22.43 50-50c0-21.948-28.379-53.259-43.121-67.258zm-6.879 97.258c-16.542 0-30-13.458-30-30 0-10.487 15.834-31.056 30-45.872 14.167 14.816 30 35.385 30 45.872 0 16.542-13.458 30-30 30z"/><path d="m365.955 86h10v10c0 5.523 4.478 10 10 10s10-4.477 10-10v-10h10c5.522 0 10-4.477 10-10s-4.478-10-10-10h-10v-10c0-5.523-4.478-10-10-10s-10 4.477-10 10v10h-10c-5.522 0-10 4.477-10 10s4.478 10 10 10z"/><path d="m315.955 10v56h-110c-2.652 0-5.195 1.054-7.071 2.929l-140 140c-1.875 1.875-2.929 4.419-2.929 7.071v140c0 4.044 2.437 7.691 6.173 9.239 3.737 1.549 8.038.692 10.898-2.167l117.072-117.072h42.338c51.842 0 77.681-29.003 98.833-60h26.4c4.127 11.641 15.249 20 28.286 20s24.159-8.359 28.286-20h31.714c5.522 0 10-4.477 10-10v-166c0-5.523-4.478-10-10-10h-120c-5.522 0-10 4.477-10 10zm-83.519 216h-66.48c-5.522 0-10 4.477-10 10 0 4.29 2.706 7.938 6.5 9.358l-86.5 86.5v-111.716l134.142-134.142h105.857v20h-90c-5.522 0-10 4.477-10 10s4.478 9.99 10 9.99h108.272c-4.187 11.794-15.31 20.01-28.272 20.01h-23.41c-4.237 0-8.015 2.671-9.428 6.666-7.052 19.938-26.005 33.334-47.162 33.334-5.522 0-10 4.477-10 10s4.478 10 10 10c27.191 0 51.782-15.808 63.266-40h16.734c3.37 0 6.72-.348 10-1.017v7.973c-19.729 29.256-40.211 53.044-83.519 53.044zm103.519-206h100v146h-30c-5.522 0-10 4.477-10 10 0 5.514-4.486 10-10 10s-10-4.486-10-10c0-5.523-4.478-10-10-10h-30v-10.02c12.457-9.377 20-24.201 20-39.98 0-5.523-4.478-10-10-10h-10z"/><circle cx="210.955" cy="502" r="10"/><path d="m55.955 502c0 5.523 4.478 10 10 10h100c5.522 0 10-4.477 10-10s-4.478-10-10-10h-90v-80.01h60.723c-.472 3.297-.723 6.644-.723 10.01 0 5.523 4.478 10 10 10s10-4.477 10-10c0-27.937 22.728-50.01 50-50.01h68.286c-4.127 11.641-15.249 20.01-28.286 20.01h-40c-5.522 0-10 4.477-10 10 0 27.57 22.43 49.99 50 49.99 14.079 0 81.413.01 95.276.01.068.001.136.01.205.01 2.56 0 5.118-.976 7.071-2.929l48.3-48.3c.039-.039.071-.082.109-.121 9.486-9.167 23.639-10.815 34.81-4.968l-78.492 96.308h-97.279c-5.522 0-10 4.477-10 10s4.478 10 10 10h102.03c3.006 0 5.853-1.352 7.752-3.683l88.06-108.05c3.241-3.978 2.946-9.763-.684-13.391-17.138-17.128-43.9-19.167-63.331-6.066-19.47-13.399-46.394-11.465-63.689 5.828l-45.361 45.362h-34.777c-13.037 0-24.159-8.359-28.286-20h28.286c27.57 0 50-22.43 50-50 0-5.523-4.478-10-10-10h-80c-27.191 0-51.768 15.811-63.252 40h-76.748c-5.522 0-10 4.477-10 10zm284.281-101.219c9.21-9.212 22.979-11.165 34.13-5.862l-37.084 37.081h-28.265z"/></g></g></svg>