<svg id="Capa_1" enable-background="new 0 0 512 512" height="512" viewBox="0 0 512 512" width="512" xmlns="http://www.w3.org/2000/svg"><g><path d="m512 256c0 66.24-25.16 126.6-66.43 172.06-8.34 9.17-17.34 17.74-26.91 25.63-1.58 1.3-3.18 2.59-4.79 3.85-.01.01-.01.01-.02.02-43.49 34.1-98.3 54.44-157.85 54.44-62.41 0-119.6-22.34-164.02-59.45-8.66-7.23-9.036-28.241-16.666-36.541-7.16-7.79-21.634-2.789-27.804-11.429-1.02-1.43-2.03-2.88-3.03-4.34-28.06-41.08.905-90.74.905-144.24 0-.64-.01.64 0 0 .04-5.68-45.105-13.24-44.695-18.83 9.63-132.59 120.26-237.17 255.31-237.17 141.38 0 256 114.62 256 256z" fill="#78c2a4"/><g><path d="m95.599 178.408c-14.244 0-25.95 10.856-27.302 24.745-4.422-2.112-9.371-3.296-14.598-3.296-18.733 0-33.919 15.186-33.919 33.919s15.186 33.919 33.919 33.919 33.919-15.186 33.919-33.919c0-.568-.015-1.133-.043-1.694 2.538.775 5.232 1.195 8.024 1.195 15.152 0 27.435-12.283 27.435-27.435 0-15.151-12.283-27.434-27.435-27.434z" fill="#e4f6ff"/><path d="m118.137 190.214c-2.51-.76-5.16-1.16-7.91-1.16-14.24 0-25.95 10.86-27.3 24.75-4.42-2.12-9.37-3.3-14.6-3.3-18.73 0-33.92 15.19-33.92 33.92 0 7.99 2.77 15.34 7.4 21.14-12.87-4.82-22.03-17.23-22.03-31.78 0-18.74 15.18-33.92 33.92-33.92 5.22 0 10.17 1.18 14.6 3.29 1.35-13.88 13.05-24.74 27.3-24.74 9.34 0 17.59 4.67 22.54 11.8z" fill="#cbe2ff"/><path d="m258.599 353.572c13.162 5.425 15.248 24.011 27.639 19.471 2.081 6.988 19.147-5.671 26.413-2.676 12.775 5.265 27.399-.822 32.664-13.597 3.38-8.201 2.063-17.15-2.679-23.91 15.561.221 30.405-8.918 36.696-24.181 3.597-8.727 3.802-18.007 1.224-26.375.789.429 1.604.827 2.453 1.177 12.775 5.265 27.399-.822 32.664-13.597s-.822-27.399-13.597-32.664c-1.712-.706-3.458-1.192-5.21-1.501.644-21.553-11.598-42.249-32.31-51.508 5.941-19.041-3.542-39.801-22.335-47.547-12.204-5.03-25.488-3.393-35.826 3.214-.345-9.497-6.091-18.382-15.451-22.24-12.775-5.265-27.399.822-32.664 13.597-1.074 2.605-1.652 5.286-1.821 7.95-.542-.244-1.08-.494-1.633-.722-27.904-11.501-59.849 1.796-71.351 29.7-11.502 27.905-12.993 50.79 14.912 62.291.144.059-.144-.058 0 0-10.179 5.815-30.541-5.175-35.354 6.502-11.502 27.905 28.98 89.17 56.884 100.672 6.852 2.824 13.947 4.145 20.924 4.13 4.94 4.928 10.906 8.99 17.758 11.814z" fill="#e4f6ff"/><path d="m198.389 230.456s-.01 0-.01.01c-.04-.02-.06-.03.01-.01z" fill="#cbe2ff"/><path d="m305.079 132.746c-8.18 1.42-15.47 6.88-18.87 15.12-1.07 2.61-1.65 5.29-1.82 7.95-.54-.24-1.08-.49-1.63-.72-27.91-11.5-59.85 1.8-71.35 29.7-11.49 27.89-13 50.77 14.87 62.27l.01.01c.01 0 .01.01.03.01-10.18 5.82-30.54-5.17-35.35 6.5-8.98 21.77 13.67 63.82 37.32 86.73-2.81-.65-5.61-1.54-8.37-2.68-27.91-11.5-68.39-72.77-56.89-100.67 4.81-11.68 25.17-.7 35.35-6.5.04.01.09.02.01-.01-27.91-11.5-26.42-34.38-14.92-62.29 11.51-27.9 43.45-41.2 71.35-29.7.56.23 1.1.48 1.64.72.17-2.66.74-5.34 1.82-7.95 5.26-12.77 19.89-18.86 32.66-13.59 6.95 2.87 11.91 8.5 14.14 15.1z" fill="#cbe2ff"/><g><g><path d="m409.03 288.6c-.02 2.44-.32 4.81-.87 7.08-1.36 5.57-4.24 10.55-8.16 14.48-5.59 5.59-13.31 9.05-21.84 9.05h-31.89c17.05 0 30.87 13.81 30.87 30.87 0 8.52-3.46 16.25-9.04 21.83-5.59 5.58-13.3 9.04-21.83 9.04h-62.07c6.94 0 13.23 2.81 17.77 7.36 4.56 4.54 7.37 10.84 7.37 17.77 0 13.87-11.25 25.12-25.14 25.12h-132.58c-22.93 0-45.37-6.64-64.62-19.13h-.01c-11.91-7.72-25.79-11.83-39.99-11.83h-2.52c-28.06-41.08-44.48-90.74-44.48-144.24 0-6.33.23-12.61.69-18.83h53.24c9.49 0 18.6-3.77 25.31-10.49l110.54-110.55c6.7-6.69 15.48-10.05 24.26-10.05s17.56 3.36 24.26 10.05c13.39 13.41 13.39 35.12 0 48.52l-31.06 31.06h143.93c8.52 0 16.24 3.46 21.83 9.04 5.59 5.59 9.05 13.31 9.05 21.84 0 17.05-13.83 30.87-30.88 30.87h26.44c17.13 0 31.57 14.01 31.42 31.14z" fill="#ffddce"/></g><g><path d="m211.379 380.95h72.831c13.882 0 25.13 11.248 25.13 25.122 0 2.026-.246 3.994-.699 5.881-2.648-11.036-12.576-19.242-24.431-19.242h-61.07c-6.495 0-11.761-5.266-11.761-11.761z" fill="#ffcbbe"/></g><g fill="#ffcbbe"><path d="m381.155 233.934c-1.36-5.57-4.226-10.552-8.158-14.477-5.585-5.585-13.302-9.046-21.831-9.046h-151.085v-7.547l7.153-7.153h143.933c8.528 0 16.246 3.461 21.831 9.046 5.593 5.585 9.046 13.31 9.046 21.831 0 2.533-.309 4.99-.889 7.346z"/><path d="m409.035 288.6c-.024 2.437-.327 4.809-.879 7.078-1.358-5.568-4.226-10.554-8.157-14.476-5.584-5.584-13.302-9.044-21.834-9.044h-121.507c-8.117 0-14.7-6.583-14.7-14.7h135.655c17.129 0 31.565 14.013 31.422 31.142z"/><path d="m240.992 319.203h105.277c8.528 0 16.246 3.461 21.831 9.046 5.593 5.585 9.046 13.31 9.046 21.831 0 2.534-.309 4.99-.888 7.346-1.36-5.57-4.226-10.552-8.158-14.477-5.585-5.585-13.302-9.046-21.831-9.046h-90.576c-8.119 0-14.701-6.581-14.701-14.7z"/></g><g><path d="m245.22 126.1c-4.52-2.07-9.39-3.1-14.27-3.1-8.79 0-17.56 3.35-24.26 10.05l-110.54 110.54c-6.72 6.72-15.82 10.49-25.32 10.49h-70.82c.04-5.68.27-11.32.68-16.91h53.23c9.5 0 18.6-3.77 25.32-10.49l110.54-110.54c6.7-6.7 15.47-10.05 24.26-10.05 8.78 0 17.56 3.35 24.25 10.05 2.97 2.97 5.28 6.35 6.93 9.96z" fill="#ffcbbe"/></g></g><path d="m290.066 383.405c-10.399-9.734-26.364-9.809-36.842-.593-1.785-4.564-4.589-8.811-8.405-12.383-13.676-12.802-35.141-12.094-47.943 1.582-.769.822-1.486 1.673-2.158 2.547-11.888-6.281-26.727-4.745-37.095 4.374-2.143-5.479-5.51-10.579-10.091-14.867-16.42-15.371-42.191-14.52-57.562 1.9s-14.52 42.191 1.9 57.562 42.191 14.52 57.562-1.9c.466-.498.916-1.005 1.352-1.52 1.589 2.762 3.605 5.34 6.052 7.631 13.281 12.432 34.125 11.744 46.557-1.537.482-.515.938-1.045 1.38-1.582 13.339 7.659 30.66 5.469 41.627-6.246.388-.415.763-.837 1.126-1.266 1.323 2.301 3.003 4.448 5.041 6.356 11.062 10.355 28.423 9.782 38.777-1.28s9.783-28.423-1.278-38.778z" fill="#e4f6ff"/><path d="m298.6 400.574c-.39-.41-.8-.82-1.22-1.21-10.4-9.73-26.36-9.81-36.84-.59-1.79-4.57-4.59-8.81-8.41-12.39-13.67-12.8-35.14-12.09-47.94 1.59-.77.82-1.49 1.67-2.16 2.54-11.89-6.28-26.72-4.74-37.09 4.38-2.15-5.48-5.51-10.58-10.09-14.87-16.42-15.37-42.19-14.52-57.57 1.9-9.48 10.13-12.79 23.81-10.07 36.42-11.76-15.51-10.99-37.69 2.76-52.38 15.37-16.42 41.14-17.27 57.56-1.9 4.58 4.29 7.95 9.39 10.09 14.87 10.37-9.12 25.21-10.66 37.1-4.38.67-.87 1.39-1.72 2.15-2.54 12.81-13.68 34.27-14.39 47.95-1.59 3.81 3.58 6.62 7.82 8.4 12.39 10.48-9.22 26.45-9.15 36.84.59 5.02 4.7 7.88 10.83 8.54 17.17z" fill="#cbe2ff"/><g fill="#ffcbbe"><path d="m140.944 396.871c-17.52 0-31.723 14.203-31.723 31.723v11.786c0 17.52 14.203 31.723 31.723 31.723 17.52 0 31.723-14.203 31.723-31.723v-11.786c0-17.521-14.203-31.723-31.723-31.723z"/><path d="m203.978 396.871c-17.52 0-31.723 14.203-31.723 31.723v11.786c0 17.52 14.203 31.723 31.723 31.723 17.52 0 31.723-14.203 31.723-31.723v-11.786c0-17.521-14.203-31.723-31.723-31.723z"/><path d="m110.04 412.13v11.79c0 8.76-3.55 16.69-9.29 22.43-2.53 2.53-5.5 4.64-8.77 6.2-16.78-14.01-31.74-30.14-44.47-47.97 3.38-13.88 15.89-24.17 30.81-24.17 17.52 0 31.72 14.2 31.72 31.72z"/></g><path d="m67.08 412.13v11.79c0 1.81.15 3.58.44 5.31-7.16-7.79-13.84-16.01-20.01-24.65 3.39-13.87 15.9-24.17 30.82-24.17 3.58 0 7.02.6 10.23 1.7-12.49 4.25-21.48 16.09-21.48 30.02z" fill="#eaac9d"/><path d="m151.186 470.419c-3.21 1.095-6.65 1.687-10.238 1.687-17.522 0-31.727-14.205-31.727-31.727v-11.786c0-17.514 14.205-31.719 31.727-31.719 3.588 0 7.029.593 10.238 1.695-12.493 4.247-21.489 16.09-21.489 30.024v11.786c.001 13.942 8.996 25.785 21.489 30.04z" fill="#eaac9d"/><path d="m214.22 470.419c-3.21 1.095-6.65 1.687-10.238 1.687-17.522 0-31.727-14.205-31.727-31.727v-11.786c0-17.514 14.205-31.719 31.727-31.719 3.588 0 7.029.593 10.238 1.695-12.493 4.247-21.489 16.09-21.489 30.024v11.786c.001 13.942 8.996 25.785 21.489 30.04z" fill="#eaac9d"/><path d="m285.54 437.462v-8.868c0-13.876-11.249-25.126-25.126-25.126-13.876 0-25.126 11.249-25.126 25.126v8.868c0 13.876 11.249 25.126 25.126 25.126 13.877-.001 25.126-11.25 25.126-25.126z" fill="#ffcbbe"/><path d="m266.852 461.757c-2.058.543-4.214.831-6.436.831-13.876 0-25.127-11.251-25.127-25.127v-8.872c0-6.938 2.815-13.218 7.358-17.769 4.551-4.543 10.831-7.358 17.769-7.358 2.222 0 4.378.288 6.436.831-4.354 1.152-8.238 3.44-11.325 6.526-4.543 4.551-7.358 10.831-7.358 17.769v8.872c0 11.655 7.926 21.449 18.683 24.297z" fill="#eaac9d"/></g><g><circle cx="411.044" cy="100.956" fill="#ffe07d" r="100.956"/><circle cx="411.044" cy="100.956" fill="#f9f6f6" r="84.96"/><path d="m462.466 100.956c0 28.372 19.554 53.546-1.887 68.971-13.955 10.064-31.07 15.988-49.535 15.988-46.846 0-84.959-38.113-84.959-84.959s38.113-84.959 84.959-84.959c30.773 30.774 51.422 38.113 51.422 84.959z" fill="#f9f6f6"/><path d="m428.711 184.068c-5.701 1.211-11.609 1.851-17.664 1.851-46.846 0-84.963-38.117-84.963-84.963s38.117-84.963 84.963-84.963c6.056 0 11.963.64 17.664 1.851-38.391 8.147-67.287 42.321-67.287 83.112s28.896 74.965 67.287 83.112z" fill="#dddaec"/><path d="m496.003 100.956c0 28.372-13.983 53.546-35.423 68.971l-49.535-68.971v-84.959c46.845 0 84.958 38.113 84.958 84.959z" fill="#dd5790"/><g fill="#21386b"><path d="m464.865 94.453c-5.475-2.019-10.586-4.214-12.36-4.989-.666-.612-.675-1.405-.611-1.855.086-.597.536-2.06 2.865-2.761 5.884-1.772 11.455 2.57 11.655 2.73 2.93 2.423 7.272 2.033 9.723-.882 2.463-2.93 2.085-7.303-.846-9.766-.457-.383-11.317-9.337-24.53-5.355-6.815 2.053-11.639 7.442-12.589 14.065-.896 6.242 1.811 12.247 7.065 15.671.306.199.627.375.961.523.269.12 6.667 2.968 13.869 5.625 2.819 1.04 5.698 2.9 5.322 5.004-.31 1.736-2.728 4.303-6.936 4.303-4.272 0-8.373-1.71-10.969-4.573-2.569-2.837-6.953-3.051-9.79-.481-2.836 2.571-3.051 6.954-.48 9.79 5.256 5.8 12.998 9.127 21.24 9.127 10.299 0 18.955-6.615 20.583-15.728 1.232-6.904-1.844-15.901-14.172-20.448z"/><path d="m379.001 116.638c-.03 0-.06 0-.089 0-5.141.065-10.578.109-15.245.123 3.025-4.065 7.102-9.66 12.469-17.328 3.6-5.143 5.949-10.015 6.985-14.479.179-.978.424-2.724.454-3.716 0-11.666-9.491-21.158-21.158-21.158-10.088 0-18.819 7.177-20.76 17.065-.737 3.756 1.709 7.399 5.466 8.137 3.757.741 7.399-1.71 8.136-5.466.668-3.403 3.679-5.873 7.158-5.873 3.899 0 7.093 3.074 7.286 6.925l-.162 1.26c-.68 2.664-2.281 5.809-4.763 9.356-8.799 12.571-14.048 19.445-16.869 23.139-3.509 4.594-5.27 6.9-4.1 10.703.691 2.249 2.393 3.973 4.666 4.731.921.308 1.751.585 12.622.585 4.255 0 10.05-.042 17.99-.142 3.828-.048 6.892-3.19 6.843-7.018-.048-3.798-3.142-6.844-6.929-6.844z"/><path d="m408.698 58.9c-12.687 0-23.009 10.322-23.009 23.009v25.712c0 12.687 10.322 23.009 23.009 23.009s23.009-10.322 23.009-23.009v-25.712c0-12.687-10.322-23.009-23.009-23.009zm9.146 48.721c0 5.043-4.103 9.146-9.146 9.146s-9.146-4.103-9.146-9.146v-25.712c0-5.043 4.103-9.146 9.146-9.146s9.146 4.103 9.146 9.146z"/></g></g><g><circle cx="172.175" cy="222.802" fill="#e4f6ff" r="21.979"/><path d="m179.336 243.581c-2.24.771-4.653 1.194-7.167 1.194-12.144 0-21.973-9.842-21.973-21.973 0-12.144 9.829-21.986 21.973-21.986 2.513 0 4.927.423 7.167 1.194-8.622 2.974-14.806 11.161-14.806 20.791 0 9.619 6.183 17.806 14.806 20.78z" fill="#cbe2ff"/></g><g><circle cx="177.068" cy="45.226" fill="#e4f6ff" r="21.979"/><path d="m184.229 66.004c-2.24.771-4.653 1.194-7.167 1.194-12.144 0-21.973-9.842-21.973-21.973 0-12.144 9.829-21.986 21.973-21.986 2.513 0 4.927.423 7.167 1.194-8.622 2.974-14.806 11.161-14.806 20.791 0 9.619 6.184 17.807 14.806 20.78z" fill="#cbe2ff"/></g><g><circle cx="438.446" cy="347.505" fill="#e4f6ff" r="21.979"/><path d="m445.607 368.284c-2.24.771-4.653 1.194-7.167 1.194-12.144 0-21.973-9.842-21.973-21.973 0-12.144 9.829-21.986 21.973-21.986 2.513 0 4.927.423 7.167 1.194-8.622 2.974-14.806 11.161-14.806 20.791 0 9.619 6.183 17.806 14.806 20.78z" fill="#cbe2ff"/></g><g><path d="m445.76 424.48c0 1.21-.06 2.41-.19 3.58-9.73 10.69-20.34 20.57-31.72 29.5-.39.01-.79.02-1.19.02-18.28 0-33.11-14.82-33.11-33.1 0-18.29 14.83-33.11 33.11-33.11s33.1 14.82 33.1 33.11z" fill="#e4f6ff"/><path d="m418.66 453.69c-1.58 1.3-3.18 2.59-4.79 3.85-.4.02-.81.03-1.22.03-18.29 0-33.1-14.82-33.1-33.09 0-18.29 14.81-33.12 33.1-33.12 3.79 0 7.42.64 10.8 1.8-12.99 4.48-22.31 16.81-22.31 31.32 0 12.63 7.09 23.63 17.52 29.21z" fill="#cbe2ff"/></g><g><circle cx="198.165" cy="258.885" fill="#e4f6ff" r="29.007"/><path d="m207.616 286.308c-2.956 1.018-6.141 1.576-9.459 1.576-16.027 0-28.999-12.989-28.999-29 0-16.027 12.972-29.016 28.999-29.016 3.317 0 6.503.558 9.459 1.576-11.38 3.925-19.541 14.73-19.541 27.44 0 12.694 8.161 23.499 19.541 27.424z" fill="#cbe2ff"/></g><g><circle cx="126.738" cy="93.422" fill="#e4f6ff" r="29.007"/><path d="m136.189 120.845c-2.956 1.018-6.141 1.576-9.459 1.576-16.027 0-28.999-12.989-28.999-29 0-16.027 12.972-29.016 28.999-29.016 3.317 0 6.503.558 9.459 1.576-11.38 3.925-19.541 14.73-19.541 27.44 0 12.694 8.161 23.499 19.541 27.424z" fill="#cbe2ff"/></g></g></svg>