<svg id="Capa_1" enable-background="new 0 0 512 512" height="512" viewBox="0 0 512 512" width="512" xmlns="http://www.w3.org/2000/svg"><g><g><path d="m10 396h492v40h-492z" fill="#eefaff"/><path d="m462 316h40v80h-40z" fill="#fce8d0"/><path d="m442 216h-40c-33.14 0-60 26.86-60 60v40h40v60h80v-60h40v-40c0-33.14-26.86-60-60-60z" fill="#fff2a0"/><path d="m462 156v20c0 14.77-8.09 27.52-20 34.45v5.55c0 11.04-8.95 20-20 20s-20-8.96-20-20v-5.55c-11.91-6.93-20-19.68-20-34.45v-20c0-22.09 17.91-40 40-40s40 17.91 40 40z" fill="#fce8d0"/><path d="m442 356c-11.05 0-20 8.95-20 20 0-11.05-8.95-20-20-20s-20 8.95-20 20v126h80c0-13.272 0-112.732 0-126 0-11.05-8.95-20-20-20z" fill="#8690a6"/><path d="m382 376v20h-40v-80h40z" fill="#fce8d0"/><path d="m342 396h-172c0-6.595 0-112.915 0-120 0-33.14 26.86-60 60-60h52c33.14 0 60 26.86 60 60z" fill="#ff7d97"/><path d="m170 316v80h-40c0-7.151 0-69.199 0-80z" fill="#fce8d0"/><path d="m110 216h-40c-33.14 0-60 26.86-60 60v40h40v60h80v-60h40v-40c0-33.14-26.86-60-60-60z" fill="#a0e5a5"/><path d="m130 156v20c0 14.77-8.09 27.52-20 34.45v5.55c0 11.04-8.95 20-20 20s-20-8.96-20-20v-5.55c-11.91-6.93-20-19.68-20-34.45v-20c0-22.09 17.91-40 40-40s40 17.91 40 40z" fill="#fce8d0"/><path d="m110 356c-11.05 0-20 8.95-20 20 0-11.05-8.95-20-20-20s-20 8.95-20 20v126h80c0-13.272 0-112.732 0-126 0-11.05-8.95-20-20-20z" fill="#8690a6"/><path d="m50 396h-40v-80h40z" fill="#fce8d0"/></g><g><path d="m226 30c0-16.542-13.458-30-30-30s-30 13.458-30 30c0 5.523 4.478 10 10 10s10-4.477 10-10c0-5.514 4.486-10 10-10s10 4.486 10 10c0 2.186-.687 4.255-1.99 5.99l-36.01 48.01c-2.272 3.03-2.639 7.084-.944 10.473 1.694 3.387 5.156 5.527 8.944 5.527h40c5.522 0 10-4.477 10-10s-4.478-10-10-10h-19.999l24.004-32.003c3.922-5.22 5.995-11.443 5.995-17.997z"/><path d="m246 50v40c0 5.523 4.478 10 10 10s10-4.477 10-10v-40c0-5.514 4.486-10 10-10s10 4.486 10 10v40c0 5.523 4.478 10 10 10s10-4.477 10-10v-40c0-5.514 4.486-10 10-10s10 4.486 10 10v40c0 5.523 4.478 10 10 10s10-4.477 10-10v-40c0-16.542-13.458-30-30-30-7.678 0-14.688 2.902-20 7.663-5.312-4.761-12.322-7.663-20-7.663-16.542 0-30 13.458-30 30z"/><path d="m342 186c5.522 0 10-4.477 10-10v-40c0-5.523-4.478-10-10-10s-10 4.477-10 10v10h-152v-10c0-5.523-4.478-10-10-10s-10 4.477-10 10v40c0 5.523 4.478 10 10 10s10-4.477 10-10v-10h152v10c0 5.523 4.478 10 10 10z"/><path d="m208.929 363.071c3.906 3.905 10.236 3.905 14.143 0l32.928-32.928 32.929 32.929c3.906 3.905 10.236 3.905 14.143 0 3.905-3.905 3.905-10.237 0-14.143l-32.929-32.929 32.929-32.929c3.905-3.905 3.905-10.237 0-14.143-3.906-3.905-10.236-3.905-14.143 0l-32.929 32.929-32.929-32.929c-3.906-3.905-10.236-3.905-14.143 0-3.905 3.905-3.905 10.237 0 14.143l32.929 32.929-32.929 32.929c-3.905 3.905-3.905 10.237.001 14.142z"/><path d="m459.921 208.335c7.655-8.926 12.079-20.371 12.079-32.335v-20c0-27.57-22.43-50-50-50s-50 22.43-50 50v20c0 11.964 4.424 23.409 12.079 32.335-17.78 4.713-32.805 16.26-42.079 31.653-12.258-20.347-34.563-33.988-60-33.988h-52c-25.437 0-47.742 13.641-60 33.988-9.274-15.393-24.299-26.94-42.079-31.653 7.655-8.926 12.079-20.371 12.079-32.335v-20c0-27.57-22.43-50-50-50s-50 22.43-50 50v20c0 11.964 4.424 23.409 12.079 32.335-29.943 7.937-52.079 35.26-52.079 67.665v160c0 5.523 4.478 10 10 10h30v56c0 5.522 4.478 10 10 10h80c5.522 0 10-4.478 10-10v-56h71c5.522 0 10-4.477 10-10s-4.478-10-10-10h-71v-20h232v20h-71c-5.522 0-10 4.477-10 10s4.478 10 10 10h71v56c0 5.522 4.478 10 10 10h80c5.522 0 10-4.478 10-10v-56h30c5.522 0 10-4.477 10-10 0-11.583 0-123.32 0-160 0-32.405-22.136-59.728-52.079-67.665zm-67.921-52.335c0-16.542 13.458-30 30-30s30 13.458 30 30v20c0 10.684-5.618 20.331-15.029 25.807-3.077 1.791-4.971 5.083-4.971 8.643v5.55c0 5.514-4.486 10-10 10s-10-4.486-10-10v-5.55c0-3.561-1.894-6.853-4.971-8.643-9.411-5.476-15.029-15.123-15.029-25.807zm-162 70h52c27.57 0 50 22.43 50 50v110h-152v-110c0-27.57 22.43-50 50-50zm-170-70c0-16.542 13.458-30 30-30s30 13.458 30 30v20c0 10.684-5.618 20.331-15.029 25.807-3.077 1.791-4.971 5.083-4.971 8.643v5.55c0 5.514-4.486 10-10 10s-10-4.486-10-10v-5.55c0-3.561-1.894-6.853-4.971-8.643-9.411-5.476-15.029-15.123-15.029-25.807zm1.962 70.655c4.307 11.296 15.248 19.345 28.038 19.345s23.731-8.049 28.038-19.345c23.761 3.857 41.962 24.511 41.962 49.345v30h-20v-10c0-5.523-4.478-10-10-10s-10 4.477-10 10v51.72c-3.13-1.11-6.494-1.72-10-1.72-7.678 0-14.688 2.902-20 7.663-5.312-4.761-12.322-7.663-20-7.663-3.506 0-6.87.61-10 1.72v-51.72c0-5.523-4.478-10-10-10s-10 4.477-10 10v10h-20v-30c0-24.834 18.201-45.488 41.962-49.345zm-41.962 99.345h20v60h-20zm0 100v-20h20v20zm40-50c0-5.514 4.486-10 10-10s10 4.486 10 10v116h-20zm60 116h-20v-116c0-5.514 4.486-10 10-10s10 4.486 10 10zm20-166h20v60h-20c0-21.427 0-37.338 0-60zm212 60v-60h20v60zm40-10c0-5.514 4.486-10 10-10s10 4.486 10 10v116h-20zm60 116h-20v-116c0-5.514 4.486-10 10-10s10 4.486 10 10zm40-106h-20c0-21.427 0-37.338 0-60h20zm0 40h-20v-20h20zm0-120h-20v-10c0-5.523-4.478-10-10-10s-10 4.477-10 10v51.72c-3.13-1.11-6.494-1.72-10-1.72-7.678 0-14.688 2.902-20 7.663-5.312-4.761-12.322-7.663-20-7.663-3.506 0-6.87.61-10 1.72v-51.72c0-5.523-4.478-10-10-10s-10 4.477-10 10v10h-20v-30c0-24.834 18.201-45.488 41.962-49.345 4.307 11.296 15.247 19.345 28.038 19.345s23.731-8.049 28.038-19.345c23.761 3.857 41.962 24.511 41.962 49.345z"/><circle cx="256" cy="436" r="10"/></g></g></svg>