<svg id="Capa_1" enable-background="new 0 0 512 512" height="512" viewBox="0 0 512 512" width="512" xmlns="http://www.w3.org/2000/svg"><g><g><path d="m462 256h-80c-22.09 0-40 17.91-40 40v206h160v-206c0-22.09-17.91-40-40-40z" fill="#99ebfa"/><path d="m502 316v146h-100c0-17.023 0-128.771 0-146z" fill="#eefaff"/><path d="m442 216v-40h-40v40h-20v40h80v-40z" fill="#eefaff"/><path d="m345.77 393.7.01.01-3.78-3.33c-15.7-12.2-38.37-11.09-52.79 3.33l-48.29 48.29h-38.92c-22.09 0-40-17.91-40-40h40c22.09 0 40-17.91 40-40h-80c-26.13 0-48.35 16.69-56.59 40h-95.41v100h304.03l87.97-107.94v-.2c-15.55-15.45-40.62-15.5-56.23-.16z" fill="#fce8d0"/><path d="m308.03 10h-298.03v100h89.41c8.24 23.31 30.46 40 56.59 40h80c0-22.09-17.91-40-40-40h-40c0-22.09 17.91-40 40-40h38.92l48.29 48.29c15.62 15.62 40.93 15.62 56.56.01 15.64 15.37 40.77 15.29 56.32-.25z" fill="#fce8d0"/><path d="m302 276c0 22.09-17.91 40-40 40s-40-17.91-40-40 40-80 40-80 40 57.91 40 80z" fill="#99ebfa"/></g><g><path d="m10 120h82.733c11.482 24.19 36.073 40 63.267 40h80c5.522 0 10-4.478 10-10 0-27.57-22.43-50-50-50h-28.286c4.127-11.641 15.249-20 28.286-20h34.777l45.361 45.361c9.745 9.745 22.547 14.616 35.353 14.616 9.919 0 19.835-2.939 28.335-8.788 19.43 13.101 46.192 11.063 63.333-6.066 3.629-3.627 3.924-9.413.683-13.391l-88.06-108.05c-1.899-2.329-4.746-3.682-7.752-3.682h-298.03c-5.522 0-10 4.478-10 10v100c0 5.522 4.478 10 10 10zm280.281-8.781-31.218-31.219h28.265l37.082 37.082c-11.149 5.302-24.918 3.348-34.129-5.863zm-270.281-91.219h283.279l78.491 96.309c-11.17 5.847-25.328 4.198-34.812-4.971-.037-.038-.069-.081-.107-.118l-48.3-48.3c-2.003-2.002-4.642-2.97-7.266-2.919h-95.285c-27.57 0-50 22.43-50 50 0 5.522 4.478 10 10 10h40c13.037 0 24.159 8.359 28.286 20h-68.286c-21.091 0-39.989-13.309-47.091-33.134-.044-.133-.09-.264-.139-.394-1.838-5.279-2.77-10.82-2.77-16.473 0-5.522-4.478-10-10-10s-10 4.478-10 10c0 3.365.237 6.704.708 10h-66.708z"/><path d="m262 186c-3.285 0-6.361 1.613-8.228 4.316-6.975 10.099-41.772 61.692-41.772 85.684 0 27.57 22.43 50 50 50s50-22.43 50-50c0-23.992-34.797-75.585-41.772-85.684-1.867-2.703-4.943-4.316-8.228-4.316zm0 120c-16.542 0-30-13.458-30-30 0-10.921 15.608-39.428 30.001-61.919 14.393 22.483 29.999 50.985 29.999 61.919 0 16.542-13.458 30-30 30z"/><path d="m472 247.006v-31.006c0-5.522-4.478-10-10-10h-10v-20h30c5.522 0 10-4.478 10-10s-4.478-10-10-10h-140c-2.652 0-5.195 1.054-7.071 2.929l-20 20c-3.905 3.905-3.905 10.237 0 14.143 3.907 3.905 10.236 3.904 14.143 0l17.071-17.072h45.857v20h-10c-5.522 0-10 4.478-10 10v31.006c-22.795 4.646-40 24.847-40 48.994v78.142c-17.194-5.188-36.511-.853-49.861 12.496l-45.362 45.362h-34.777c-13.037 0-24.159-8.359-28.286-20h28.286c27.57 0 50-22.43 50-50 0-5.522-4.478-10-10-10h-80c-27.191 0-51.768 15.811-63.252 40h-88.748c-5.522 0-10 4.478-10 10v100c0 5.522 4.478 10 10 10h106c5.522 0 10-4.478 10-10s-4.478-10-10-10h-96v-80.01h72.723c-.472 3.307-.723 6.644-.723 10.01 0 5.522 4.478 10 10 10s10-4.478 10-10c0-5.725.955-11.334 2.838-16.667 7.049-19.938 26.002-33.343 47.162-33.343l68.286.01c-4.127 11.641-15.249 20-28.286 20h-40c-5.522 0-10 4.478-10 10 0 27.57 22.43 50 50 50l95.276-.01c.068.001.136.01.205.01 2.56 0 5.118-.967 7.071-2.919l48.3-48.3c.038-.038.07-.08.107-.119 9.475-9.161 23.64-10.814 34.811-4.971-7.963 9.771-69.208 84.919-78.49 96.309h-103.28c-5.522 0-10 4.478-10 10s4.478 10 10 10h108.03c3.006 0 5.853-1.353 7.752-3.683l10.218-12.537v6.22c0 5.522 4.478 10 10 10h160c5.522 0 10-4.478 10-10v-206c0-24.146-17.205-44.348-40-48.994zm-60 78.994h80v126h-80c0-27.554 0-101.532 0-126zm0-140h20v20h-20zm40 40v20h-60v-20zm-155.719 174.781c9.121-9.123 22.879-11.235 34.132-5.865l-37.086 37.084h-28.265zm55.719-23.51v-81.271c0-16.542 13.458-30 30-30h80c16.542 0 30 13.458 30 30v10h-90c-5.522 0-10 4.478-10 10v59.707c-12.886-4.991-27.465-4.471-40 1.564zm0 114.729v-20.76l40-49.081v39.841c0 5.522 4.478 10 10 10h90v20z"/><circle cx="161" cy="502" r="10"/></g></g></svg>