<svg id="Capa_1" enable-background="new 0 0 512 512" height="512" viewBox="0 0 512 512" width="512" xmlns="http://www.w3.org/2000/svg"><g><g><path d="m376 336h-240c-44.18 0-80 35.82-80 80v46h80v40h240v-40h80v-46c0-44.18-35.82-80-80-80z" fill="#99ebfa"/><path d="m216 310.91v25.09s11.84 20 40 20 40-20 40-20v-25.09z" fill="#fce8d0"/><path d="m256 10c-77.32 0-140 62.68-140 140v146h280v-146c0-77.32-62.68-140-140-140z" fill="#fff2a0"/><path d="m366 176h-10v-46c-33.14 0-60-26.86-60-60-24.99 37.48-67.06 60-112.11 60h-27.89v46h-10c-16.57 0-30 13.43-30 30s13.43 30 30 30h12.531c3.844 14.963 11.906 28.227 22.859 38.46h149.22c10.953-10.233 19.016-23.497 22.859-38.46h12.531c16.57 0 30-13.43 30-30s-13.43-30-30-30z" fill="#fce8d0"/><path d="m376 462h80v40h-80z" fill="#fce8d0"/><path d="m336 296c-.1.031-35.818 20-80 20-44.494 0-79.796-19.938-80-20 23.883-95.533 19.446-77.785 20-80h120c.554 2.215-3.883-15.533 20 80z" fill="#eefaff"/><path d="m56 462h80v40h-80z" fill="#fce8d0"/></g><g><circle cx="296" cy="176" r="10"/><circle cx="216" cy="176" r="10"/><circle cx="256" cy="502" r="10"/><path d="m46 502c0 5.522 4.478 10 10 10h155c5.522 0 10-4.478 10-10s-4.478-10-10-10h-65v-76c0-5.522-4.478-10-10-10s-10 4.478-10 10v36h-60v-36c0-38.598 31.402-70 70-70h75.031c6.193 7.269 20.523 20 44.969 20s38.775-12.731 44.969-20h75.031c38.598 0 70 31.402 70 70v36h-60v-36c0-5.522-4.478-10-10-10s-10 4.478-10 10v76h-65c-5.522 0-10 4.478-10 10s4.478 10 10 10h155c5.522 0 10-4.478 10-10v-86c0-49.626-40.374-90-90-90h-70v-7.429c15.949-4.624 27.647-10.128 32.463-12.571h57.537c5.522 0 10-4.478 10-10v-146c0-82.71-67.29-150-150-150s-150 67.29-150 150v146c0 5.522 4.478 10 10 10h57.537c4.816 2.443 16.513 7.946 32.463 12.571v7.429h-70c-49.626 0-90 40.374-90 90zm340-10v-20h60v20zm-130-146c-17.199 0-26.618-9.102-30-13.221v-9.536c10.195 1.82 20.245 2.757 30 2.757 9.754 0 19.803-.937 30-2.757v9.537c-3.382 4.118-12.801 13.22-30 13.22zm-109.439-120h-.561c-11.028 0-20-8.972-20-20s8.972-20 20-20v30c0 3.35.194 6.689.561 10zm19.439-25.857 18.926 18.926-8.448 33.789c-6.877-11.077-10.478-23.756-10.478-36.858zm34.143 5.857-34.143-34.143v-31.857h17.89c40.754 0 79.049-17.011 106.208-46.389 8.621 23.992 29.993 41.954 55.902 45.677v32.569l-34.143 34.143zm126.931 13.068 18.926-18.925v15.857c0 13.087-3.596 25.773-10.478 36.857zm38.926-3.068v-30c11.028 0 20 8.972 20 20s-8.972 20-20 20h-.561c.367-3.312.561-6.651.561-10zm-22.192 70-2.121-8.485c8.545-9.109 15.054-19.82 19.179-31.515h5.134c7.283 0 14.112-1.966 20-5.382v45.382zm-87.808-266c71.683 0 130 58.317 130 130v21.382c-5.888-3.415-12.717-5.382-20-5.382v-36c0-5.522-4.478-10-10-10-27.57 0-50-22.43-50-50 0-4.406-2.885-8.294-7.102-9.571-4.221-1.278-8.774.358-11.219 4.023-23.191 34.782-61.991 55.548-103.789 55.548h-27.89c-5.522 0-10 4.478-10 10v36c-7.283 0-14.112 1.966-20 5.382v-21.382c0-71.683 58.317-130 130-130zm-130 220.618c5.888 3.415 12.717 5.382 20 5.382h5.134c4.126 11.698 10.635 22.408 19.179 31.515l-2.121 8.485h-42.192zm77.809-14.618h104.383l16.146 64.59c-20.544 9.304-45.115 15.41-68.338 15.41-22.93 0-47.352-5.935-68.336-15.42 3.585-14.342 12.585-50.342 16.145-64.58zm-77.809 246v20h-60v-20z"/></g></g></svg>