<svg id="Capa_1" enable-background="new 0 0 512 512" height="512" viewBox="0 0 512 512" width="512" xmlns="http://www.w3.org/2000/svg"><g><g><path d="m256 136c-73.68 0-166 40-166 40v160s92.32 40 166 40 166-40 166-40c0-31.316 0-124.358 0-160 0 0-92.32-40-166-40z" fill="#99ebfa"/></g><g><path d="m462 126c-22.69 0-41.886 15.198-47.975 35.945-27.707-10.873-98.095-35.945-158.025-35.945s-130.318 25.072-158.025 35.945c-6.089-20.747-25.285-35.945-47.975-35.945-27.57 0-50 22.43-50 50v61.92c0 49.649 31.982 93.485 86.693 107.543 9.186 3.923 96.885 40.537 169.307 40.537 12.028 0 25.266-1.033 39.344-3.071 5.466-.791 9.256-5.863 8.464-11.329-.791-5.466-5.864-9.258-11.329-8.464-13.133 1.9-25.406 2.864-36.479 2.864-60.146 0-134.563-28.069-156-36.691v-41.063c27.639 5.417 97.067 17.754 156 17.754 58.934 0 128.361-12.337 156-17.754v41.071c-6.78 2.735-18.852 7.419-34.006 12.508-5.236 1.758-8.056 7.427-6.297 12.662 1.758 5.236 7.43 8.059 12.662 6.297 22.123-7.428 37.58-13.887 40.944-15.319 54.613-14.032 86.697-57.806 86.697-107.545v-61.92c0-27.57-22.43-50-50-50zm-50 56.691v41.063c-27.639-5.417-97.066-17.754-156-17.754-58.933 0-128.361 12.337-156 17.754v-41.063c21.437-8.622 95.854-36.691 156-36.691s134.563 28.069 156 36.691zm-392 55.229v-61.92c0-16.542 13.458-30 30-30s30 13.458 30 30v146.407c-36.846-13.963-60-45.964-60-84.487zm236 48.08c-59.428 0-132.254-13.438-156-18.159v-23.683c23.738-4.721 96.531-18.158 156-18.158 59.428 0 132.254 13.438 156 18.159v23.683c-23.738 4.721-96.531 18.158-156 18.158zm236-48.08c0 38.523-23.154 70.524-60 84.488 0-96.071 0-44.674 0-146.407 0-16.542 13.458-30 30-30s30 13.458 30 30z"/><circle cx="338" cy="364" r="10"/></g></g></svg>